# xmcd
#
# Track frame offsets:
#	150
#	15823
#	29413
#	42965
#	52854
#
# Disc length: 901 seconds
#
# Revision: 0
# Processed by: cddbd v1.5.2PL0 Copyright (c) Steve Scherf et al.
# Submitted via: EasyCDDAExtractor 12.0.1.1
#
DISCID=2c038305
DTITLE=Kandis - Kandis Jul
DYEAR=2009
DGENRE=Dansktop
TTITLE0=Glade Jul
TTITLE1=Højt Fra Træets Grønne Top
TTITLE2=Det Kimer Nu Til Julefest
TTITLE3=På Loftet Sidder Nissen
TTITLE4=Dejlig Er Jorden
EXTD=
EXTT0=
EXTT1=
EXTT2=
EXTT3=
EXTT4=
PLAYORDER=
